<?xml version="1.0" encoding="utf-8"?>
<!-- Generator: Adobe Illustrator 18.0.0, SVG Export Plug-In . SVG Version: 6.00 Build 0)  -->
<!DOCTYPE svg PUBLIC "-//W3C//DTD SVG 1.1//EN" "http://www.w3.org/Graphics/SVG/1.1/DTD/svg11.dtd">
<svg version="1.1" id="Layer_1" xmlns="http://www.w3.org/2000/svg" xmlns:xlink="http://www.w3.org/1999/xlink" x="0px" y="0px"
	 viewBox="0 0 450 70" enable-background="new 0 0 450 70" xml:space="preserve">
<g>
	<g>
		<path fill="#0DBCE6" d="M38.3,24.1c-3.5-3.1-6.9-3.6-10.8-3.6c-5.4-0.1-10.6,2-10.4,6.4c0.1,4.6,6.2,5.5,10.5,6.3
			c6.2,1,14.6,2.1,14.3,10.1c-0.2,7.6-8.1,9.6-14.2,9.6c-6.1,0-12.1-2.3-15.1-6.9l2.5-2.2c2.9,4.1,8,5.9,12.7,5.9
			c4.2,0,10.6-1.1,10.8-6.6c0.1-5-5.6-5.9-11.3-6.9C20.6,35,14,33.8,13.9,26.9c-0.1-6.8,6.7-9.7,13.7-9.6c5,0,9.4,1.4,12.9,4.6
			L38.3,24.1z"/>
		<path fill="#0DBCE6" d="M27.7,53.6c-6.9,0-12.8-2.7-15.8-7.3l-0.4-0.6l3.7-3.3l0.5,0.7c2.4,3.5,6.9,5.5,12,5.5
			c2.9,0,9.8-0.6,10-5.8c0.1-4-4.3-5-10.6-6c-6.2-1-14-2.3-14.1-10.1c0-2.6,0.8-4.8,2.6-6.5c2.5-2.5,6.9-4,11.9-3.9
			c5.5,0,10,1.6,13.4,4.8l0.6,0.5l-3.2,3.4l-0.6-0.5c-3.3-2.9-6.6-3.4-10.5-3.4c-3.6,0-6.6,0.9-8.2,2.5c-0.8,0.8-1.2,1.9-1.2,3
			c0.1,3.8,5.3,4.7,9.4,5.5l1.2,0.2c6.1,1,14.5,2.4,14.1,10.8C42.4,52.9,31.2,53.6,27.7,53.6z M13.7,46.1c2.8,3.7,8.1,6,14,6
			c3.1,0,13.2-0.6,13.4-8.9c0.3-7-6.6-8.2-12.8-9.2l-1.2-0.2c-4.5-0.8-10.6-1.9-10.7-7c-0.1-1.6,0.5-3,1.6-4.2c1.9-2,5.4-3.1,9.6-3
			c3.9,0,7.3,0.6,10.7,3.3l1-1.1c-3.1-2.6-7.1-3.9-12-3.9c-4.5,0-8.3,1.3-10.5,3.5c-1.4,1.4-2.2,3.3-2.1,5.4
			c0.1,5.9,5.3,7.3,12.8,8.5c5.7,0.9,12.1,1.9,11.9,7.7c-0.2,4.6-4.5,7.3-11.6,7.3c-5.3,0-10-2-12.8-5.5L13.7,46.1z"/>
	</g>
	<g>
		<path fill="#0DBCE6" d="M54.6,35c0-10.3,7.8-17.8,17.5-17.8c9.7,0,18.4,7.4,18.2,19.3l-32.3,0.1c0.7,8.1,6.9,12.8,14,12.8
			c4.5,0,9.9-1.8,12.4-5.2l2.4,2c-3.4,4.4-9.4,6.6-14.9,6.6C62.4,52.8,54.6,46,54.6,35z M86.3,33.6c-0.6-8.2-4.8-13.9-14.2-13.3
			c-7.1,0.4-13.3,4.8-14,13.3H86.3z"/>
		<path fill="#0DBCE6" d="M72.1,53.6c-10.8,0-18.3-7.6-18.3-18.5c0-10.6,7.9-18.6,18.3-18.6c5.2,0,10,2,13.6,5.6
			c3.7,3.7,5.6,8.8,5.5,14.5l0,0.8l-32.2,0.1c1.1,7.7,7.3,11.2,13.2,11.2c3.9,0,9.3-1.5,11.8-4.9l0.5-0.6l3.7,2.9l-0.5,0.6
			C84.4,50.9,78.4,53.6,72.1,53.6z M72.1,18c-9.5,0-16.8,7.3-16.8,17c0,10,6.9,17,16.8,17c5.5,0,10.7-2.2,13.8-5.7l-1.2-1
			c-3,3.4-8.4,4.9-12.6,4.9c-8,0-14.2-5.6-14.8-13.5l-0.1-0.9l32.4-0.1c-0.1-5-1.8-9.4-5-12.6C81.3,19.8,76.9,18,72.1,18z
			 M87.2,34.4h-30l0.1-0.9c0.7-8.1,6.4-13.5,14.8-14c9-0.6,14.3,4.4,15.1,14L87.2,34.4z M58.9,32.8h26.5
			c-0.7-5.9-3.6-12.3-13.3-11.7C66.4,21.5,60.1,24.8,58.9,32.8z"/>
	</g>
	<g>
		<path fill="#0DBCE6" d="M108.4,3.4v48.9H105V3.4H108.4z"/>
		<path fill="#0DBCE6" d="M109.2,53.1h-5V2.6h5V53.1z M105.8,51.5h1.8V4.2h-1.8V51.5z"/>
	</g>
	<g>
		<path fill="#0DBCE6" d="M128.4,3.4v48.9H125V3.4H128.4z"/>
		<path fill="#0DBCE6" d="M129.2,53.1h-5V2.6h5V53.1z M125.8,51.5h1.8V4.2h-1.8V51.5z"/>
	</g>
	<g>
		<path fill="#0DBCE6" d="M143,35c0-10.3,7.8-17.8,17.5-17.8c9.7,0,18.4,5.9,17.1,19.4h-31.1c0.7,8.1,6.9,12.8,14,12.8
			c4.5,0,9.9-1.8,12.4-5.2l2.4,2c-3.4,4.4-9.4,6.6-14.9,6.6C150.9,52.8,143,46,143,35z M174.6,33.6c-0.1-8.5-5.7-13.3-14-13.3
			c-7.1,0-13.3,4.8-14,13.3H174.6z"/>
		<path fill="#0DBCE6" d="M160.6,53.6c-10.8,0-18.3-7.6-18.3-18.5c0-10.6,7.9-18.6,18.3-18.6c5.7,0,10.6,1.9,13.8,5.5
			c3.2,3.6,4.6,8.7,4,14.8l-0.1,0.7h-30.9c1.1,7.7,7.3,11.2,13.2,11.2c3.9,0,9.3-1.5,11.8-4.9l0.5-0.6l3.7,2.9l-0.5,0.6
			C172.8,50.9,166.9,53.6,160.6,53.6z M160.6,18c-9.5,0-16.8,7.3-16.8,17c0,10,6.9,17,16.8,17c5.5,0,10.7-2.2,13.8-5.7l-1.2-1
			c-3,3.4-8.4,4.9-12.6,4.9c-8.1,0-14.2-5.6-14.8-13.5l-0.1-0.9h31.2c0.4-5.4-0.8-9.7-3.7-12.9C170.3,19.8,165.8,18,160.6,18z
			 M175.4,34.4h-29.7l0.1-0.9c0.8-8.4,6.7-14,14.8-14c9,0,14.7,5.4,14.8,14.1L175.4,34.4z M147.4,32.8h26.3
			c-0.4-7.3-5.3-11.7-13.2-11.7C153.6,21.1,148.4,25.8,147.4,32.8z"/>
	</g>
	<g>
		<path fill="#3D4097" d="M227.9,66.7V22.3l3.4,0.1v3.5c2.7-5.2,8.2-8.7,15-8.7c9.4,0.3,16.8,6.6,16.8,17.8
			c0,11.6-7.8,17.9-17.5,17.9c-5.9,0-11.3-2.9-14.3-8.6v22.4H227.9z M259.6,35c0-9.7-6.3-14.5-14.1-14.5c-8,0-14,6.1-14,14.5
			s6.1,14.5,14,14.5C253.3,49.6,259.6,44.7,259.6,35z"/>
		<path fill="#3D4097" d="M232,67.5h-4.9v-46l4.9,0.2v1.5c3.2-4.3,8.3-6.7,14.2-6.7c10.5,0.4,17.6,7.8,17.6,18.5
			c0,11.2-7.4,18.7-18.3,18.7c-5.6,0-10.4-2.4-13.5-6.6V67.5z M228.7,65.9h1.7V41l1.5,2.9c2.7,5.2,7.6,8.2,13.6,8.2
			c10.2,0,16.8-6.7,16.8-17.1c0-9.9-6.3-16.6-16-17c-6.2,0-11.5,3.1-14.2,8.2l-1.5,2.9v-6l-1.8-0.1V65.9z M245.4,50.4
			c-8.4,0-14.8-6.6-14.8-15.3c0-8.9,6.2-15.3,14.8-15.3c9.1,0,14.9,6,14.9,15.3C260.4,44.4,254.5,50.4,245.4,50.4z M245.4,21.4
			c-7.6,0-13.2,5.8-13.2,13.7c0,7.8,5.7,13.7,13.2,13.7c6.4,0,13.3-3.6,13.3-13.8C258.8,24.9,251.9,21.4,245.4,21.4z"/>
	</g>
	<g>
		<path fill="#3D4097" d="M317.3,6.5c0,3.6-5.5,3.6-5.5,0S317.3,2.9,317.3,6.5z M312.8,17.6v34.7h3.4V17.6H312.8z"/>
		<path fill="#3D4097" d="M317,53.1h-5V16.8h5V53.1z M313.5,51.5h1.8V18.4h-1.8V51.5z M314.5,10c-1.8,0-3.6-1.2-3.6-3.5
			c0-4.6,7.1-4.6,7.1,0C318.1,8.8,316.3,10,314.5,10z M314.5,4.6c-1,0-2,0.6-2,1.9c0,2.7,3.9,2.7,3.9,0
			C316.5,5.2,315.5,4.6,314.5,4.6z"/>
	</g>
	<g>
		<path fill="#3D4097" d="M384.1,52.3V31.6c0-6.6-4.5-11.3-11-11.3c-6.6,0-11.1,4.9-11.1,11.5v20.5h-3.4V31.8
			c0-6.6-4.5-11.5-11.1-11.5c-6.6,0-11,4.8-11,11.5v20.5H333V17.8h3.2l0.1,5.7c2.4-4.5,6.8-6.4,11.3-6.4c5.2,0,10.8,2.4,12.8,8.5
			c2.1-5.7,7.5-8.5,12.8-8.5c8.5,0,14.5,5.9,14.5,14.5v20.7H384.1z"/>
		<path fill="#3D4097" d="M388.3,53.1h-5V31.6c0-6.3-4.1-10.5-10.3-10.5c-6.1,0-10.3,4.4-10.3,10.7v21.3h-5V31.8
			c0-6.3-4.2-10.7-10.3-10.7c-6,0-10.3,4.4-10.3,10.7v21.3h-5V17h4.8l0,3.9c2.5-3,6.2-4.6,10.5-4.6c5.9,0,10.6,2.7,12.8,7.3
			c2.4-4.5,7.2-7.3,12.8-7.3c9,0,15.3,6.3,15.3,15.3V53.1z M384.9,51.5h1.8V31.6c0-8.1-5.6-13.7-13.7-13.7c-5.5,0-10.2,3.1-12,8
			l-0.8,2.1l-0.7-2.2c-1.6-5-6.1-8-12-8c-4.7,0-8.6,2.2-10.6,6l-1.5,2.8l-0.1-8.1h-1.6v32.9h1.8V31.8c0-7.2,4.9-12.3,11.8-12.3
			c6.9,0,11.9,5.2,11.9,12.3v19.7h1.8V31.8c0-7.1,5-12.3,11.9-12.3c7,0,11.8,5,11.8,12.1V51.5z"/>
	</g>
	<g>
		<path fill="#3D4097" d="M402.2,35c0-10.3,7.8-17.8,17.5-17.8c9.7,0,18.4,5.9,17.1,19.4h-31.1c0.7,8.1,6.9,12.8,14,12.8
			c4.5,0,9.9-1.8,12.4-5.2l2.4,2c-3.4,4.4-9.4,6.6-14.9,6.6C410,52.8,402.2,46,402.2,35z M433.7,33.6c-0.1-8.5-5.7-13.3-14-13.3
			c-7.1,0-13.3,4.8-14,13.3H433.7z"/>
		<path fill="#3D4097" d="M419.8,53.6c-10.8,0-18.3-7.6-18.3-18.5c0-10.6,7.9-18.6,18.3-18.6c5.7,0,10.6,1.9,13.8,5.5
			c3.2,3.6,4.6,8.7,4,14.8l-0.1,0.7h-30.9c1.1,7.7,7.3,11.2,13.2,11.2c3.9,0,9.3-1.5,11.8-4.9l0.5-0.6l3.7,2.9l-0.5,0.6
			C432,50.9,426.1,53.6,419.8,53.6z M419.8,18c-9.6,0-16.8,7.3-16.8,17c0,10,6.9,17,16.8,17c5.5,0,10.7-2.2,13.8-5.7l-1.2-1
			c-3,3.4-8.4,4.9-12.6,4.9c-8,0-14.2-5.6-14.8-13.5l-0.1-0.9h31.2c0.4-5.4-0.8-9.7-3.7-12.9C429.5,19.8,425,18,419.8,18z
			 M434.5,34.4h-29.7l0.1-0.9c0.8-8.4,6.7-14,14.8-14c9,0,14.7,5.4,14.8,14.1L434.5,34.4z M406.6,32.8h26.3
			c-0.4-7.3-5.3-11.7-13.2-11.7C412.8,21.1,407.6,25.8,406.6,32.8z"/>
	</g>
	<g>
		<path fill="#3D4097" d="M300.6,19.4c0,0-11.1-6.1-18.7,2.7c0,0-4.1,4.7-3.5,9.9v20.3h3.4V32.2c0,0-0.1-8.2,8.2-11.2
			c0,0,4.8-1.4,9,1.2L300.6,19.4z"/>
		<path fill="#3D4097" d="M282.6,53.1h-5V32c-0.6-5.3,3.5-10.2,3.7-10.4c7.9-9.1,19.6-3,19.7-2.9l0.7,0.4l-2.3,4.2l-0.7-0.4
			c-3.9-2.4-8.3-1.2-8.4-1.1c-7.6,2.7-7.7,10.1-7.7,10.4V53.1z M279.2,51.5h1.8V32.2c0-0.1,0-8.8,8.8-11.9c0.2-0.1,4.7-1.4,9,0.9
			l0.7-1.4c-2.5-1.1-10.9-4.2-17,2.9c0,0-3.9,4.6-3.3,9.3L279.2,51.5z"/>
	</g>
	<g>
		<path fill="#0DBCE6" d="M215.8,19.7c0,0-11.1-6.1-18.7,2.7c0,0-4.1,4.7-3.5,9.9v20.3h3.4V32.4c0,0-0.1-8.2,8.2-11.2
			c0,0,4.8-1.4,9,1.2L215.8,19.7z"/>
		<path fill="#0DBCE6" d="M197.8,53.3h-5V32.3c-0.6-5.3,3.5-10.2,3.7-10.4c7.9-9.2,19.6-3,19.7-2.9l0.7,0.4l-2.3,4.2l-0.7-0.4
			c-3.9-2.4-8.3-1.2-8.4-1.1c-7.6,2.7-7.7,10.1-7.7,10.4V53.3z M194.3,51.8h1.8V32.4c0-0.1,0-8.8,8.8-11.9c0.2-0.1,4.7-1.4,9,0.9
			l0.7-1.4c-2.5-1.1-10.9-4.2-17,2.9c0,0-3.9,4.6-3.3,9.3L194.3,51.8z"/>
	</g>
</g>
</svg>
